<svg xmlns="http://www.w3.org/2000/svg" xmlns:xlink="http://www.w3.org/1999/xlink" width="600" zoomAndPan="magnify" viewBox="0 0 450 449.999984" height="600" preserveAspectRatio="xMidYMid meet" version="1.0"><defs><clipPath id="16de1a9fc9"><path d="M 113.300781 79 L 117 79 L 117 95 L 113.300781 95 Z M 113.300781 79 " clip-rule="nonzero"/></clipPath><clipPath id="5d00d706b4"><path d="M 113.300781 148 L 117 148 L 117 180 L 113.300781 180 Z M 113.300781 148 " clip-rule="nonzero"/></clipPath><clipPath id="6cf08f68bd"><path d="M 333 118 L 336.800781 118 L 336.800781 150 L 333 150 Z M 333 118 " clip-rule="nonzero"/></clipPath><clipPath id="499dbeea58"><path d="M 113.300781 109 L 117 109 L 117 141 L 113.300781 141 Z M 113.300781 109 " clip-rule="nonzero"/></clipPath><clipPath id="1c076e49b7"><path d="M 114 5 L 336.800781 5 L 336.800781 445.15625 L 114 445.15625 Z M 114 5 " clip-rule="nonzero"/></clipPath></defs><g clip-path="url(#16de1a9fc9)"><path fill="#4d4d4d" d="M 116.679688 94.339844 L 113.320312 94.339844 L 113.320312 79.417969 L 116.679688 79.417969 L 116.679688 94.339844 " fill-opacity="1" fill-rule="nonzero"/></g><g clip-path="url(#5d00d706b4)"><path fill="#4d4d4d" d="M 116.679688 179.4375 L 113.320312 179.4375 L 113.320312 148.609375 L 116.679688 148.609375 L 116.679688 179.4375 " fill-opacity="1" fill-rule="nonzero"/></g><g clip-path="url(#6cf08f68bd)"><path fill="#4d4d4d" d="M 336.832031 149.671875 L 333.472656 149.671875 L 333.472656 118.839844 L 336.832031 118.839844 L 336.832031 149.671875 " fill-opacity="1" fill-rule="nonzero"/></g><g clip-path="url(#499dbeea58)"><path fill="#4d4d4d" d="M 116.679688 140.085938 L 113.320312 140.085938 L 113.320312 109.257812 L 116.679688 109.257812 L 116.679688 140.085938 " fill-opacity="1" fill-rule="nonzero"/></g><g clip-path="url(#1c076e49b7)"><path fill="#333333" d="M 302.980469 445.003906 L 147.167969 445.003906 C 128.921875 445.003906 114.136719 430.222656 114.136719 411.984375 L 114.136719 38.078125 C 114.136719 19.839844 128.921875 5.054688 147.167969 5.054688 L 302.980469 5.054688 C 321.222656 5.054688 336.011719 19.839844 336.011719 38.078125 L 336.011719 411.984375 C 336.011719 430.222656 321.222656 445.003906 302.980469 445.003906 " fill-opacity="1" fill-rule="nonzero"/></g><path fill="#4d4d4d" d="M 147.167969 443.457031 C 129.808594 443.457031 115.683594 429.339844 115.683594 411.984375 L 115.683594 38.078125 C 115.683594 20.722656 129.808594 6.605469 147.167969 6.605469 L 302.980469 6.605469 C 320.339844 6.605469 334.464844 20.722656 334.464844 38.078125 L 334.464844 411.984375 C 334.464844 429.339844 320.339844 443.457031 302.980469 443.457031 L 147.167969 443.457031 " fill-opacity="1" fill-rule="nonzero"/><path fill="#000000" d="M 147.167969 441.910156 C 130.660156 441.910156 117.234375 428.484375 117.234375 411.984375 L 117.234375 38.078125 C 117.234375 21.574219 130.660156 8.152344 147.167969 8.152344 L 302.980469 8.152344 C 319.488281 8.152344 332.914062 21.574219 332.914062 38.078125 L 332.914062 411.984375 C 332.914062 428.484375 319.488281 441.910156 302.980469 441.910156 L 147.167969 441.910156 " fill-opacity="1" fill-rule="nonzero"/><path fill="#ffffff" d="M 326.722656 38.078125 L 326.722656 411.984375 C 326.722656 425.070312 316.074219 435.714844 302.980469 435.714844 L 147.167969 435.714844 C 134.054688 435.714844 123.429688 425.089844 123.429688 411.984375 L 123.429688 38.078125 C 123.429688 24.972656 134.054688 14.347656 147.167969 14.347656 L 173.367188 14.347656 C 174.625 14.347656 175.648438 15.367188 175.648438 16.625 L 175.648438 20.726562 C 175.648438 25.929688 179.863281 30.144531 185.066406 30.144531 L 265.078125 30.144531 C 270.285156 30.144531 274.503906 25.925781 274.503906 20.722656 L 274.503906 16.625 C 274.503906 15.367188 275.523438 14.347656 276.78125 14.347656 L 302.980469 14.347656 C 316.074219 14.347656 326.722656 24.992188 326.722656 38.078125 " fill-opacity="1" fill-rule="nonzero"/><path fill="#1a1a1a" d="M 239.796875 20.636719 L 210.347656 20.636719 C 209.574219 20.636719 208.945312 20.007812 208.945312 19.234375 C 208.945312 18.460938 209.574219 17.835938 210.347656 17.835938 L 239.796875 17.835938 C 240.574219 17.835938 241.199219 18.460938 241.199219 19.234375 C 241.199219 20.007812 240.574219 20.636719 239.796875 20.636719 " fill-opacity="1" fill-rule="nonzero"/><path fill="#091429" d="M 256.753906 19.234375 C 256.753906 20.394531 255.8125 21.332031 254.65625 21.332031 C 253.5 21.332031 252.558594 20.394531 252.558594 19.234375 C 252.558594 18.078125 253.5 17.136719 254.65625 17.136719 C 255.8125 17.136719 256.753906 18.078125 256.753906 19.234375 " fill-opacity="1" fill-rule="nonzero"/><path fill="#091448" d="M 255.757812 19.234375 C 255.757812 19.839844 255.261719 20.332031 254.65625 20.332031 C 254.050781 20.332031 253.554688 19.839844 253.554688 19.234375 C 253.554688 18.628906 254.050781 18.136719 254.65625 18.136719 C 255.261719 18.136719 255.757812 18.628906 255.757812 19.234375 " fill-opacity="1" fill-rule="nonzero"/></svg>