<svg xmlns="http://www.w3.org/2000/svg" xmlns:xlink="http://www.w3.org/1999/xlink" width="64" zoomAndPan="magnify" viewBox="0 0 48 48" height="64" preserveAspectRatio="xMidYMid meet" version="1.0"><defs><clipPath id="625419c6ab"><path d="M 0.488281 0 L 47.507812 0 L 47.507812 47 L 0.488281 47 Z M 0.488281 0 " clip-rule="nonzero"/></clipPath><clipPath id="56fb886198"><path d="M 14 9 L 35 9 L 35 47.019531 L 14 47.019531 Z M 14 9 " clip-rule="nonzero"/></clipPath></defs><g clip-path="url(#625419c6ab)"><path fill="#1877f2" d="M 47.511719 23.511719 C 47.511719 10.527344 36.984375 0 24 0 C 11.015625 0 0.488281 10.527344 0.488281 23.511719 C 0.488281 35.246094 9.085938 44.972656 20.328125 46.734375 L 20.328125 30.304688 L 14.355469 30.304688 L 14.355469 23.511719 L 20.328125 23.511719 L 20.328125 18.332031 C 20.328125 12.4375 23.835938 9.183594 29.207031 9.183594 C 31.777344 9.183594 34.46875 9.644531 34.46875 9.644531 L 34.46875 15.429688 L 31.503906 15.429688 C 28.585938 15.429688 27.671875 17.242188 27.671875 19.101562 L 27.671875 23.511719 L 34.195312 23.511719 L 33.152344 30.304688 L 27.671875 30.304688 L 27.671875 46.734375 C 38.914062 44.972656 47.511719 35.246094 47.511719 23.511719 " fill-opacity="1" fill-rule="nonzero"/></g><g clip-path="url(#56fb886198)"><path fill="#ffffff" d="M 33.152344 30.304688 L 34.195312 23.511719 L 27.671875 23.511719 L 27.671875 19.101562 C 27.671875 17.242188 28.585938 15.429688 31.503906 15.429688 L 34.46875 15.429688 L 34.46875 9.644531 C 34.46875 9.644531 31.777344 9.183594 29.207031 9.183594 C 23.835938 9.183594 20.328125 12.4375 20.328125 18.332031 L 20.328125 23.511719 L 14.355469 23.511719 L 14.355469 30.304688 L 20.328125 30.304688 L 20.328125 46.734375 C 21.523438 46.921875 22.75 47.019531 24 47.019531 C 25.25 47.019531 26.476562 46.921875 27.671875 46.734375 L 27.671875 30.304688 L 33.152344 30.304688 " fill-opacity="1" fill-rule="nonzero"/></g></svg>