<svg xmlns="http://www.w3.org/2000/svg" xmlns:xlink="http://www.w3.org/1999/xlink" width="64" zoomAndPan="magnify" viewBox="0 0 48 48" height="64" preserveAspectRatio="xMidYMid meet" version="1.0"><defs><clipPath id="de8316336b"><path d="M 0.488281 0 L 47.507812 0 L 47.507812 47 L 0.488281 47 Z M 0.488281 0 " clip-rule="nonzero"/></clipPath></defs><g clip-path="url(#de8316336b)"><path fill="#de4c36" d="M 46.34375 21.441406 L 26.066406 1.167969 C 24.902344 0 23.007812 0 21.839844 1.167969 L 17.628906 5.375 L 22.96875 10.71875 C 24.210938 10.296875 25.632812 10.578125 26.625 11.570312 C 27.617188 12.566406 27.898438 14 27.464844 15.246094 L 32.613281 20.394531 C 33.859375 19.964844 35.296875 20.242188 36.292969 21.238281 C 37.679688 22.625 37.679688 24.878906 36.292969 26.269531 C 34.902344 27.660156 32.648438 27.660156 31.257812 26.269531 C 30.210938 25.222656 29.953125 23.6875 30.484375 22.398438 L 25.683594 17.597656 L 25.679688 30.230469 C 26.019531 30.398438 26.339844 30.625 26.625 30.90625 C 28.011719 32.292969 28.011719 34.546875 26.625 35.9375 C 25.234375 37.328125 22.980469 37.328125 21.589844 35.9375 C 20.203125 34.546875 20.203125 32.292969 21.589844 30.90625 C 21.933594 30.5625 22.332031 30.300781 22.753906 30.128906 L 22.753906 17.378906 C 22.332031 17.203125 21.9375 16.945312 21.589844 16.601562 C 20.535156 15.550781 20.285156 14.003906 20.824219 12.710938 L 15.558594 7.445312 L 1.65625 21.347656 C 0.488281 22.515625 0.488281 24.410156 1.65625 25.578125 L 21.933594 45.855469 C 23.101562 47.019531 24.996094 47.019531 26.164062 45.855469 L 46.34375 25.671875 C 47.511719 24.503906 47.511719 22.609375 46.34375 21.441406 " fill-opacity="1" fill-rule="nonzero"/></g></svg>