<svg xmlns="http://www.w3.org/2000/svg" xmlns:xlink="http://www.w3.org/1999/xlink" width="64" zoomAndPan="magnify" viewBox="0 0 48 48" height="64" preserveAspectRatio="xMidYMid meet" version="1.0"><defs><clipPath id="d72f945604"><path d="M 10 36 L 40 36 L 40 47.019531 L 10 47.019531 Z M 10 36 " clip-rule="nonzero"/></clipPath><clipPath id="760024dbd6"><path d="M 16.273438 40.0625 L 33.664062 40.0625 L 33.664062 47.019531 L 16.273438 47.019531 Z M 16.273438 40.0625 " clip-rule="nonzero"/></clipPath><clipPath id="e9276f90eb"><path d="M 28.867188 41.636719 C 28.964844 41.308594 28.984375 40.800781 27.96875 41.03125 C 27.96875 41.03125 25.203125 41.425781 25.070312 44.65625 L 25.007812 50.839844 L 24.339844 50.839844 L 24.277344 44.65625 C 24.144531 41.425781 21.378906 41.03125 21.378906 41.03125 C 20.367188 40.800781 20.378906 41.308594 20.480469 41.636719 C 19.488281 39.945312 16.828125 40.164062 16.828125 40.164062 C 15.90625 40.492188 16.761719 41.085938 16.761719 41.085938 C 18.210938 41.613281 18.34375 43.195312 18.34375 43.195312 L 18.34375 47.664062 L 18.5 51.117188 C 18.828125 52.65625 19.640625 53.566406 20.4375 54.101562 L 28.925781 54.09375 C 29.953125 53.394531 31.003906 52.074219 31.003906 49.582031 L 31.003906 43.195312 C 31.003906 43.195312 31.132812 41.613281 32.585938 41.085938 C 34.035156 40.558594 33.441406 40.492188 32.519531 40.164062 C 32.519531 40.164062 32.40625 40.15625 32.21875 40.15625 C 31.496094 40.15625 29.65625 40.292969 28.867188 41.636719 M 20.851562 48.003906 L 20.851562 43.128906 C 20.851562 42.652344 20.765625 42.253906 20.621094 41.914062 C 21.578125 42.660156 21.640625 44.523438 21.640625 44.523438 L 21.640625 50.609375 C 20.691406 49.9375 20.851562 48.003906 20.851562 48.003906 M 27.707031 44.523438 C 27.707031 44.523438 27.773438 42.660156 28.726562 41.914062 C 28.582031 42.25 28.5 42.652344 28.5 43.128906 L 28.5 48.003906 C 28.5 48.003906 28.65625 49.800781 27.707031 50.542969 Z M 27.707031 44.523438 " clip-rule="nonzero"/></clipPath><clipPath id="8e26c2844a"><path d="M 0.488281 0 L 47.507812 0 L 47.507812 42 L 0.488281 42 Z M 0.488281 0 " clip-rule="nonzero"/></clipPath></defs><g clip-path="url(#d72f945604)"><path fill="#a0dcf2" d="M 39.714844 41.832031 C 39.714844 44.699219 33.074219 47.019531 24.878906 47.019531 C 16.6875 47.019531 10.046875 44.699219 10.046875 41.832031 C 10.046875 38.964844 16.6875 36.640625 24.878906 36.640625 C 33.074219 36.640625 39.714844 38.96875 39.714844 41.832031 " fill-opacity="1" fill-rule="nonzero"/></g><g clip-path="url(#760024dbd6)"><g clip-path="url(#e9276f90eb)"><path fill="#82bde7" d="M 39.714844 41.832031 C 39.714844 44.699219 33.074219 47.019531 24.878906 47.019531 C 16.6875 47.019531 10.046875 44.699219 10.046875 41.832031 C 10.046875 38.964844 16.6875 36.640625 24.878906 36.640625 C 33.074219 36.640625 39.714844 38.96875 39.714844 41.832031 " fill-opacity="1" fill-rule="nonzero"/></g></g><path fill="#a0dcf2" d="M 7.933594 26.570312 L 7.507812 28.0625 C 7.507812 28.0625 7.394531 28.601562 7.902344 28.699219 C 8.433594 28.6875 8.390625 28.191406 8.355469 28.03125 Z M 7.933594 26.570312 " fill-opacity="1" fill-rule="nonzero"/><g clip-path="url(#8e26c2844a)"><path fill="#292929" d="M 51.0625 20.316406 L 51.101562 20.125 C 46.75 19.253906 42.285156 19.246094 39.578125 19.359375 C 40.023438 17.757812 40.15625 15.921875 40.15625 13.867188 C 40.15625 10.925781 39.050781 8.574219 37.253906 6.785156 C 37.570312 5.769531 37.988281 3.523438 36.835938 0.644531 C 36.835938 0.644531 34.804688 0 30.214844 3.074219 C 28.414062 2.625 26.5 2.402344 24.582031 2.402344 C 22.472656 2.402344 20.339844 2.671875 18.351562 3.21875 C 13.609375 -0.015625 11.515625 0.644531 11.515625 0.644531 C 10.152344 4.0625 10.996094 6.585938 11.25 7.214844 C 9.644531 8.949219 8.664062 11.160156 8.664062 13.867188 C 8.664062 15.914062 8.898438 17.75 9.46875 19.347656 C 6.742188 19.246094 2.441406 19.285156 -1.761719 20.125 L -1.722656 20.316406 C 2.5 19.472656 6.832031 19.445312 9.535156 19.546875 C 9.664062 19.875 9.800781 20.195312 9.957031 20.507812 C 7.28125 20.59375 2.707031 20.933594 -1.675781 22.171875 L -1.621094 22.359375 C 2.796875 21.113281 7.410156 20.78125 10.0625 20.703125 C 11.660156 23.683594 14.816406 25.609375 20.429688 26.210938 C 19.632812 26.746094 18.820312 27.65625 18.488281 29.195312 C 17.402344 29.710938 13.96875 30.980469 11.90625 27.433594 C 11.90625 27.433594 10.75 25.328125 8.542969 25.160156 C 8.542969 25.160156 6.398438 25.132812 8.394531 26.496094 C 8.394531 26.496094 9.828125 27.171875 10.816406 29.707031 C 10.816406 29.707031 12.109375 34.035156 18.335938 32.644531 L 18.335938 37.117188 C 18.335938 37.117188 18.203125 38.699219 16.753906 39.226562 C 15.300781 39.753906 15.894531 39.820312 16.820312 40.148438 C 16.820312 40.148438 20.839844 40.480469 20.839844 37.183594 L 20.839844 32.308594 C 20.839844 32.308594 20.679688 30.375 21.632812 29.703125 L 21.632812 37.71875 C 21.632812 37.71875 21.566406 39.628906 20.578125 40.355469 C 19.589844 41.078125 19.917969 41.539062 21.367188 41.210938 C 21.367188 41.210938 24.136719 40.816406 24.269531 37.585938 L 24.332031 29.480469 L 24.996094 29.480469 L 25.058594 37.585938 C 25.191406 40.816406 27.960938 41.210938 27.960938 41.210938 C 29.410156 41.539062 28.75 40.355469 28.75 40.355469 C 27.761719 39.628906 27.695312 37.71875 27.695312 37.71875 L 27.695312 29.777344 C 28.648438 30.515625 28.488281 32.316406 28.488281 32.316406 L 28.488281 37.191406 C 28.488281 40.484375 32.507812 40.15625 32.507812 40.15625 C 33.429688 39.828125 32.574219 39.234375 32.574219 39.234375 C 31.125 38.703125 30.992188 37.125 30.992188 37.125 L 30.992188 30.734375 C 30.992188 28.242188 29.941406 26.921875 28.914062 26.226562 C 34.898438 25.632812 37.773438 23.699219 39.097656 20.699219 C 41.71875 20.769531 46.4375 21.089844 50.949219 22.363281 L 51.003906 22.171875 C 46.515625 20.90625 41.828125 20.582031 39.179688 20.503906 C 39.308594 20.199219 39.417969 19.882812 39.511719 19.558594 C 42.195312 19.441406 46.683594 19.445312 51.050781 20.320312 " fill-opacity="1" fill-rule="nonzero"/></g><path fill="#f5cdb5" d="M 34.304688 13.726562 C 35.59375 14.894531 36.347656 16.304688 36.347656 17.824219 C 36.347656 24.917969 31.058594 25.109375 24.535156 25.109375 C 18.011719 25.109375 12.722656 24.128906 12.722656 17.828125 C 12.722656 16.320312 13.464844 14.917969 14.738281 13.757812 C 16.863281 11.820312 20.457031 12.84375 24.535156 12.84375 C 28.597656 12.84375 32.175781 11.808594 34.304688 13.734375 " fill-opacity="1" fill-rule="nonzero"/><path fill="#ffffff" d="M 20.605469 18.1875 C 20.605469 20.140625 19.507812 21.726562 18.148438 21.726562 C 16.792969 21.726562 15.691406 20.140625 15.691406 18.1875 C 15.691406 16.234375 16.792969 14.652344 18.148438 14.652344 C 19.507812 14.652344 20.605469 16.234375 20.605469 18.1875 " fill-opacity="1" fill-rule="nonzero"/><path fill="#b1645a" d="M 19.816406 18.230469 C 19.816406 19.535156 19.082031 20.589844 18.179688 20.589844 C 17.277344 20.589844 16.539062 19.535156 16.539062 18.230469 C 16.539062 16.929688 17.273438 15.875 18.179688 15.875 C 19.085938 15.875 19.816406 16.929688 19.816406 18.230469 " fill-opacity="1" fill-rule="nonzero"/><path fill="#ffffff" d="M 33.792969 18.1875 C 33.792969 20.140625 32.691406 21.726562 31.335938 21.726562 C 29.976562 21.726562 28.875 20.140625 28.875 18.1875 C 28.875 16.234375 29.976562 14.652344 31.335938 14.652344 C 32.691406 14.652344 33.792969 16.234375 33.792969 18.1875 " fill-opacity="1" fill-rule="nonzero"/><path fill="#b1645a" d="M 33.007812 18.230469 C 33.007812 19.535156 32.269531 20.589844 31.367188 20.589844 C 30.464844 20.589844 29.730469 19.535156 29.730469 18.230469 C 29.730469 16.929688 30.464844 15.875 31.367188 15.875 C 32.269531 15.875 33.007812 16.929688 33.007812 18.230469 M 25.1875 21.324219 C 25.1875 21.664062 24.910156 21.941406 24.570312 21.941406 C 24.230469 21.941406 23.957031 21.664062 23.957031 21.324219 C 23.957031 20.984375 24.230469 20.710938 24.570312 20.710938 C 24.910156 20.710938 25.1875 20.984375 25.1875 21.324219 M 23.140625 22.878906 C 23.09375 22.753906 23.136719 22.671875 23.257812 22.625 C 23.382812 22.582031 23.46875 22.625 23.511719 22.746094 C 23.667969 23.195312 24.09375 23.492188 24.566406 23.492188 C 25.039062 23.492188 25.460938 23.195312 25.621094 22.746094 C 25.664062 22.625 25.75 22.582031 25.871094 22.628906 C 25.996094 22.671875 26.035156 22.753906 25.992188 22.878906 C 25.882812 23.179688 25.699219 23.421875 25.4375 23.605469 C 25.175781 23.789062 24.886719 23.878906 24.566406 23.878906 C 24.246094 23.878906 23.957031 23.789062 23.695312 23.605469 C 23.433594 23.421875 23.246094 23.179688 23.140625 22.878906 " fill-opacity="1" fill-rule="nonzero"/><path fill="#c5e6da" d="M 9.507812 25.695312 C 9.507812 25.859375 9.316406 25.992188 9.082031 25.992188 C 8.84375 25.992188 8.652344 25.859375 8.652344 25.695312 C 8.652344 25.53125 8.84375 25.398438 9.082031 25.398438 C 9.316406 25.398438 9.507812 25.53125 9.507812 25.695312 M 10.695312 26.351562 C 10.695312 26.515625 10.503906 26.648438 10.265625 26.648438 C 10.03125 26.648438 9.839844 26.515625 9.839844 26.351562 C 9.839844 26.1875 10.03125 26.054688 10.265625 26.054688 C 10.503906 26.054688 10.695312 26.1875 10.695312 26.351562 M 11.421875 27.207031 C 11.421875 27.371094 11.230469 27.503906 10.992188 27.503906 C 10.753906 27.503906 10.566406 27.371094 10.566406 27.207031 C 10.566406 27.042969 10.757812 26.910156 10.992188 26.910156 C 11.230469 26.910156 11.421875 27.042969 11.421875 27.207031 M 12.082031 28.195312 C 12.082031 28.359375 11.890625 28.492188 11.652344 28.492188 C 11.414062 28.492188 11.222656 28.359375 11.222656 28.195312 C 11.222656 28.03125 11.414062 27.898438 11.652344 27.898438 C 11.890625 27.898438 12.082031 28.03125 12.082031 28.195312 M 12.804688 29.121094 C 12.804688 29.285156 12.613281 29.417969 12.378906 29.417969 C 12.140625 29.417969 11.949219 29.285156 11.949219 29.121094 C 11.949219 28.957031 12.140625 28.824219 12.378906 28.824219 C 12.613281 28.824219 12.804688 28.957031 12.804688 29.121094 M 13.796875 29.910156 C 13.796875 30.074219 13.605469 30.207031 13.367188 30.207031 C 13.128906 30.207031 12.9375 30.074219 12.9375 29.910156 C 12.9375 29.746094 13.128906 29.617188 13.367188 29.617188 C 13.601562 29.617188 13.796875 29.746094 13.796875 29.910156 " fill-opacity="1" fill-rule="nonzero"/><path fill="#c5e6da" d="M 15.179688 30.4375 C 15.179688 30.601562 14.988281 30.734375 14.75 30.734375 C 14.515625 30.734375 14.324219 30.601562 14.324219 30.4375 C 14.324219 30.273438 14.515625 30.140625 14.75 30.140625 C 14.988281 30.140625 15.179688 30.273438 15.179688 30.4375 " fill-opacity="1" fill-rule="nonzero"/><path fill="#c5e6da" d="M 16.558594 30.4375 C 16.558594 30.601562 16.367188 30.734375 16.128906 30.734375 C 15.890625 30.734375 15.699219 30.601562 15.699219 30.4375 C 15.699219 30.273438 15.890625 30.140625 16.128906 30.140625 C 16.367188 30.140625 16.558594 30.273438 16.558594 30.4375 " fill-opacity="1" fill-rule="nonzero"/><path fill="#c5e6da" d="M 17.957031 30.207031 C 17.957031 30.371094 17.765625 30.503906 17.527344 30.503906 C 17.289062 30.503906 17.097656 30.371094 17.097656 30.207031 C 17.097656 30.042969 17.289062 29.910156 17.527344 29.910156 C 17.765625 29.910156 17.957031 30.042969 17.957031 30.207031 " fill-opacity="1" fill-rule="nonzero"/></svg>