<svg xmlns="http://www.w3.org/2000/svg" xmlns:xlink="http://www.w3.org/1999/xlink" width="64" zoomAndPan="magnify" viewBox="0 0 48 48" height="64" preserveAspectRatio="xMidYMid meet" version="1.0"><defs><clipPath id="fef1863124"><path d="M 1.023438 0 L 47.308594 0 L 47.308594 47 L 1.023438 47 Z M 1.023438 0 " clip-rule="nonzero"/></clipPath><clipPath id="92309ba379"><path d="M 24.164062 0.929688 C 23.40625 0.929688 22.652344 0.96875 21.898438 1.042969 C 21.144531 1.117188 20.394531 1.226562 19.652344 1.375 C 18.910156 1.523438 18.175781 1.703125 17.449219 1.921875 C 16.726562 2.140625 16.011719 2.394531 15.3125 2.683594 C 14.613281 2.972656 13.929688 3.292969 13.261719 3.648438 C 12.59375 4.003906 11.945312 4.386719 11.316406 4.804688 C 10.683594 5.222656 10.078125 5.671875 9.492188 6.148438 C 8.90625 6.625 8.34375 7.128906 7.808594 7.660156 C 7.273438 8.191406 6.765625 8.746094 6.285156 9.328125 C 5.804688 9.910156 5.351562 10.511719 4.929688 11.136719 C 4.511719 11.761719 4.121094 12.40625 3.761719 13.066406 C 3.40625 13.730469 3.082031 14.410156 2.792969 15.101562 C 2.5 15.796875 2.246094 16.503906 2.023438 17.222656 C 1.804688 17.941406 1.621094 18.667969 1.472656 19.40625 C 1.324219 20.144531 1.210938 20.886719 1.136719 21.632812 C 1.0625 22.382812 1.023438 23.132812 1.023438 23.882812 C 2.292969 54.335938 46.042969 54.324219 47.308594 23.882812 C 47.308594 23.132812 47.269531 22.382812 47.195312 21.632812 C 47.121094 20.886719 47.007812 20.144531 46.859375 19.40625 C 46.710938 18.667969 46.527344 17.941406 46.304688 17.222656 C 46.085938 16.503906 45.832031 15.796875 45.539062 15.101562 C 45.25 14.410156 44.925781 13.730469 44.566406 13.066406 C 44.210938 12.40625 43.820312 11.761719 43.398438 11.136719 C 42.980469 10.511719 42.527344 9.910156 42.046875 9.328125 C 41.566406 8.746094 41.058594 8.191406 40.523438 7.660156 C 39.988281 7.128906 39.425781 6.625 38.839844 6.148438 C 38.253906 5.671875 37.648438 5.222656 37.015625 4.804688 C 36.386719 4.386719 35.738281 4 35.070312 3.648438 C 34.402344 3.292969 33.71875 2.972656 33.019531 2.683594 C 32.316406 2.394531 31.605469 2.140625 30.878906 1.921875 C 30.15625 1.703125 29.421875 1.523438 28.679688 1.375 C 27.9375 1.226562 27.1875 1.117188 26.433594 1.042969 C 25.679688 0.96875 24.921875 0.929688 24.164062 0.929688 Z M 24.164062 44.421875 C 23.488281 44.417969 22.8125 44.386719 22.136719 44.320312 C 21.460938 44.253906 20.792969 44.152344 20.128906 44.023438 C 19.464844 43.890625 18.804688 43.726562 18.15625 43.53125 C 17.507812 43.335938 16.871094 43.109375 16.246094 42.851562 C 15.617188 42.59375 15.007812 42.304688 14.410156 41.988281 C 13.8125 41.671875 13.230469 41.324219 12.667969 40.953125 C 12.105469 40.578125 11.558594 40.179688 11.035156 39.75 C 10.511719 39.324219 10.011719 38.875 9.53125 38.398438 C 9.050781 37.921875 8.597656 37.425781 8.167969 36.90625 C 7.734375 36.386719 7.332031 35.847656 6.957031 35.289062 C 6.578125 34.730469 6.230469 34.152344 5.910156 33.558594 C 5.589844 32.96875 5.300781 32.359375 5.042969 31.738281 C 4.78125 31.117188 4.554688 30.484375 4.355469 29.84375 C 4.160156 29.199219 3.992188 28.546875 3.859375 27.886719 C 3.726562 27.230469 3.628906 26.566406 3.5625 25.894531 C 3.492188 25.226562 3.460938 24.554688 3.460938 23.882812 C 4.597656 -3.363281 43.738281 -3.355469 44.871094 23.882812 C 44.871094 24.554688 44.835938 25.226562 44.769531 25.894531 C 44.703125 26.566406 44.605469 27.230469 44.472656 27.886719 C 44.339844 28.546875 44.171875 29.199219 43.976562 29.84375 C 43.777344 30.484375 43.550781 31.117188 43.289062 31.738281 C 43.03125 32.359375 42.742188 32.96875 42.421875 33.558594 C 42.101562 34.152344 41.753906 34.730469 41.375 35.289062 C 41 35.847656 40.59375 36.386719 40.164062 36.90625 C 39.734375 37.425781 39.28125 37.921875 38.800781 38.398438 C 38.320312 38.875 37.820312 39.324219 37.296875 39.75 C 36.773438 40.179688 36.226562 40.578125 35.664062 40.953125 C 35.101562 41.324219 34.519531 41.671875 33.921875 41.988281 C 33.324219 42.304688 32.710938 42.59375 32.085938 42.851562 C 31.460938 43.109375 30.824219 43.335938 30.175781 43.53125 C 29.523438 43.726562 28.867188 43.890625 28.203125 44.023438 C 27.539062 44.152344 26.871094 44.253906 26.195312 44.320312 C 25.519531 44.386719 24.84375 44.417969 24.164062 44.421875 Z M 37.023438 20.101562 L 26.265625 12.988281 C 25.957031 12.785156 25.621094 12.628906 25.261719 12.519531 C 24.90625 12.414062 24.539062 12.359375 24.164062 12.359375 C 23.792969 12.359375 23.425781 12.414062 23.070312 12.519531 C 22.710938 12.628906 22.375 12.785156 22.066406 12.988281 L 11.308594 20.101562 C 11.179688 20.191406 11.066406 20.300781 10.980469 20.433594 C 10.890625 20.566406 10.832031 20.710938 10.804688 20.867188 C 10.773438 21.023438 10.773438 21.179688 10.804688 21.335938 C 10.835938 21.492188 10.898438 21.632812 10.984375 21.765625 C 11.074219 21.898438 11.183594 22.007812 11.316406 22.097656 C 11.449219 22.1875 11.59375 22.246094 11.753906 22.28125 C 11.910156 22.3125 12.066406 22.3125 12.222656 22.285156 C 12.378906 22.253906 12.527344 22.199219 12.660156 22.109375 L 13.609375 21.484375 L 13.609375 30.972656 C 13.609375 31.261719 13.636719 31.550781 13.695312 31.835938 C 13.753906 32.121094 13.839844 32.398438 13.949219 32.667969 C 14.0625 32.933594 14.199219 33.191406 14.363281 33.433594 C 14.527344 33.671875 14.710938 33.898438 14.917969 34.101562 C 15.125 34.308594 15.351562 34.492188 15.59375 34.652344 C 15.839844 34.816406 16.097656 34.953125 16.367188 35.0625 C 16.636719 35.175781 16.917969 35.257812 17.203125 35.316406 C 17.492188 35.371094 17.78125 35.402344 18.074219 35.402344 C 20.089844 35.402344 30.238281 35.402344 30.257812 35.402344 C 30.550781 35.402344 30.839844 35.371094 31.128906 35.316406 C 31.414062 35.257812 31.695312 35.175781 31.964844 35.0625 C 32.234375 34.953125 32.492188 34.816406 32.734375 34.652344 C 32.980469 34.492188 33.207031 34.308594 33.414062 34.101562 C 33.621094 33.898438 33.804688 33.671875 33.96875 33.433594 C 34.128906 33.191406 34.269531 32.933594 34.378906 32.667969 C 34.492188 32.398438 34.578125 32.121094 34.636719 31.835938 C 34.691406 31.550781 34.722656 31.261719 34.722656 30.972656 L 34.722656 21.484375 C 35.09375 21.707031 35.875 22.367188 36.34375 22.3125 C 36.609375 22.308594 36.847656 22.226562 37.0625 22.066406 C 37.273438 21.910156 37.417969 21.703125 37.496094 21.453125 C 37.570312 21.199219 37.566406 20.949219 37.480469 20.699219 C 37.390625 20.449219 37.238281 20.25 37.023438 20.101562 Z M 25.691406 32.984375 L 22.640625 32.984375 L 22.640625 29.683594 C 22.640625 29.480469 22.679688 29.289062 22.753906 29.101562 C 22.832031 28.917969 22.941406 28.753906 23.085938 28.613281 C 23.230469 28.46875 23.394531 28.359375 23.582031 28.285156 C 23.769531 28.207031 23.964844 28.167969 24.164062 28.167969 C 24.367188 28.167969 24.5625 28.207031 24.75 28.285156 C 24.9375 28.359375 25.101562 28.46875 25.246094 28.613281 C 25.386719 28.753906 25.5 28.917969 25.574219 29.101562 C 25.652344 29.289062 25.691406 29.480469 25.691406 29.683594 Z M 32.285156 30.972656 C 32.285156 31.238281 32.234375 31.496094 32.132812 31.742188 C 32.027344 31.988281 31.882812 32.207031 31.691406 32.394531 C 31.5 32.582031 31.28125 32.730469 31.03125 32.832031 C 30.785156 32.933594 30.523438 32.984375 30.257812 32.984375 L 28.128906 32.984375 L 28.128906 29.683594 C 27.960938 24.488281 20.367188 24.492188 20.203125 29.683594 L 20.203125 32.984375 L 18.074219 32.984375 C 17.804688 32.984375 17.546875 32.933594 17.300781 32.832031 C 17.050781 32.730469 16.832031 32.582031 16.640625 32.394531 C 16.449219 32.207031 16.304688 31.988281 16.199219 31.742188 C 16.097656 31.496094 16.046875 31.238281 16.046875 30.972656 L 16.046875 19.875 L 23.417969 15 C 23.644531 14.855469 23.894531 14.78125 24.164062 14.78125 C 24.4375 14.78125 24.6875 14.855469 24.914062 15 L 32.285156 19.875 Z M 32.285156 30.972656 " clip-rule="nonzero"/></clipPath><linearGradient x1="3.5" gradientTransform="matrix(0.81203, 0, 0, 0.805393, -1.819166, -1.889486)" y1="31.926001" x2="60.499997" gradientUnits="userSpaceOnUse" y2="31.926001" id="b1fd5fe3ca"><stop stop-opacity="1" stop-color="rgb(99.998474%, 87.098694%, 0%)" offset="0"/><stop stop-opacity="1" stop-color="rgb(99.995422%, 86.894226%, 0%)" offset="0.00390625"/><stop stop-opacity="1" stop-color="rgb(99.992371%, 86.691284%, 0%)" offset="0.0078125"/><stop stop-opacity="1" stop-color="rgb(99.989319%, 86.486816%, 0%)" offset="0.0117188"/><stop stop-opacity="1" stop-color="rgb(99.986267%, 86.283875%, 0%)" offset="0.015625"/><stop stop-opacity="1" stop-color="rgb(99.983215%, 86.079407%, 0%)" offset="0.0195313"/><stop stop-opacity="1" stop-color="rgb(99.980164%, 85.876465%, 0%)" offset="0.0234375"/><stop stop-opacity="1" stop-color="rgb(99.977112%, 85.671997%, 0%)" offset="0.0273438"/><stop stop-opacity="1" stop-color="rgb(99.97406%, 85.467529%, 0%)" offset="0.03125"/><stop stop-opacity="1" stop-color="rgb(99.971008%, 85.263062%, 0%)" offset="0.0351563"/><stop stop-opacity="1" stop-color="rgb(99.967957%, 85.06012%, 0%)" offset="0.0390625"/><stop stop-opacity="1" stop-color="rgb(99.964905%, 84.855652%, 0%)" offset="0.0429688"/><stop stop-opacity="1" stop-color="rgb(99.961853%, 84.65271%, 0%)" offset="0.046875"/><stop stop-opacity="1" stop-color="rgb(99.958801%, 84.448242%, 0%)" offset="0.0507812"/><stop stop-opacity="1" stop-color="rgb(99.95575%, 84.2453%, 0%)" offset="0.0546875"/><stop stop-opacity="1" stop-color="rgb(99.952698%, 84.040833%, 0%)" offset="0.0585938"/><stop stop-opacity="1" stop-color="rgb(99.949646%, 83.836365%, 0%)" offset="0.0625"/><stop stop-opacity="1" stop-color="rgb(99.946594%, 83.631897%, 0%)" offset="0.0664062"/><stop stop-opacity="1" stop-color="rgb(99.943542%, 83.428955%, 0%)" offset="0.0703125"/><stop stop-opacity="1" stop-color="rgb(99.940491%, 83.224487%, 0%)" offset="0.0742188"/><stop stop-opacity="1" stop-color="rgb(99.937439%, 83.021545%, 0%)" offset="0.078125"/><stop stop-opacity="1" stop-color="rgb(99.932861%, 82.817078%, 0%)" offset="0.0820313"/><stop stop-opacity="1" stop-color="rgb(99.92981%, 82.61261%, 0%)" offset="0.0859375"/><stop stop-opacity="1" stop-color="rgb(99.926758%, 82.408142%, 0%)" offset="0.0898438"/><stop stop-opacity="1" stop-color="rgb(99.923706%, 82.2052%, 0%)" offset="0.09375"/><stop stop-opacity="1" stop-color="rgb(99.920654%, 82.000732%, 0%)" offset="0.0976563"/><stop stop-opacity="1" stop-color="rgb(99.917603%, 81.797791%, 0%)" offset="0.101563"/><stop stop-opacity="1" stop-color="rgb(99.914551%, 81.593323%, 0%)" offset="0.105469"/><stop stop-opacity="1" stop-color="rgb(99.911499%, 81.390381%, 0%)" offset="0.109375"/><stop stop-opacity="1" stop-color="rgb(99.908447%, 81.185913%, 0%)" offset="0.113281"/><stop stop-opacity="1" stop-color="rgb(99.905396%, 80.981445%, 0%)" offset="0.117188"/><stop stop-opacity="1" stop-color="rgb(99.902344%, 80.776978%, 0%)" offset="0.121094"/><stop stop-opacity="1" stop-color="rgb(99.899292%, 80.574036%, 0%)" offset="0.125"/><stop stop-opacity="1" stop-color="rgb(99.89624%, 80.369568%, 0%)" offset="0.128906"/><stop stop-opacity="1" stop-color="rgb(99.893188%, 80.166626%, 0%)" offset="0.132812"/><stop stop-opacity="1" stop-color="rgb(99.890137%, 79.962158%, 0%)" offset="0.136719"/><stop stop-opacity="1" stop-color="rgb(99.887085%, 79.759216%, 0%)" offset="0.140625"/><stop stop-opacity="1" stop-color="rgb(99.884033%, 79.554749%, 0%)" offset="0.144531"/><stop stop-opacity="1" stop-color="rgb(99.880981%, 79.350281%, 0%)" offset="0.148438"/><stop stop-opacity="1" stop-color="rgb(99.87793%, 79.145813%, 0%)" offset="0.152344"/><stop stop-opacity="1" stop-color="rgb(99.874878%, 78.942871%, 0%)" offset="0.15625"/><stop stop-opacity="1" stop-color="rgb(99.8703%, 78.738403%, 0%)" offset="0.160156"/><stop stop-opacity="1" stop-color="rgb(99.867249%, 78.535461%, 0%)" offset="0.164063"/><stop stop-opacity="1" stop-color="rgb(99.864197%, 78.330994%, 0%)" offset="0.167969"/><stop stop-opacity="1" stop-color="rgb(99.861145%, 78.128052%, 0%)" offset="0.171875"/><stop stop-opacity="1" stop-color="rgb(99.858093%, 77.923584%, 0%)" offset="0.175781"/><stop stop-opacity="1" stop-color="rgb(99.855042%, 77.719116%, 0%)" offset="0.179688"/><stop stop-opacity="1" stop-color="rgb(99.85199%, 77.514648%, 0%)" offset="0.183594"/><stop stop-opacity="1" stop-color="rgb(99.848938%, 77.311707%, 0%)" offset="0.1875"/><stop stop-opacity="1" stop-color="rgb(99.845886%, 77.107239%, 0%)" offset="0.191406"/><stop stop-opacity="1" stop-color="rgb(99.842834%, 76.904297%, 0%)" offset="0.195312"/><stop stop-opacity="1" stop-color="rgb(99.839783%, 76.699829%, 0%)" offset="0.199219"/><stop stop-opacity="1" stop-color="rgb(99.836731%, 76.495361%, 0%)" offset="0.203125"/><stop stop-opacity="1" stop-color="rgb(99.833679%, 76.290894%, 0%)" offset="0.207031"/><stop stop-opacity="1" stop-color="rgb(99.830627%, 76.087952%, 0%)" offset="0.210938"/><stop stop-opacity="1" stop-color="rgb(99.827576%, 75.883484%, 0%)" offset="0.214844"/><stop stop-opacity="1" stop-color="rgb(99.824524%, 75.680542%, 0%)" offset="0.21875"/><stop stop-opacity="1" stop-color="rgb(99.821472%, 75.476074%, 0%)" offset="0.222656"/><stop stop-opacity="1" stop-color="rgb(99.81842%, 75.273132%, 0%)" offset="0.226562"/><stop stop-opacity="1" stop-color="rgb(99.815369%, 75.068665%, 0%)" offset="0.230469"/><stop stop-opacity="1" stop-color="rgb(99.812317%, 74.864197%, 0%)" offset="0.234375"/><stop stop-opacity="1" stop-color="rgb(99.809265%, 74.659729%, 0%)" offset="0.238281"/><stop stop-opacity="1" stop-color="rgb(99.806213%, 74.456787%, 0%)" offset="0.242188"/><stop stop-opacity="1" stop-color="rgb(99.801636%, 74.252319%, 0%)" offset="0.246094"/><stop stop-opacity="1" stop-color="rgb(99.798584%, 74.049377%, 0%)" offset="0.25"/><stop stop-opacity="1" stop-color="rgb(99.795532%, 73.84491%, 0%)" offset="0.253906"/><stop stop-opacity="1" stop-color="rgb(99.79248%, 73.641968%, 0%)" offset="0.257813"/><stop stop-opacity="1" stop-color="rgb(99.789429%, 73.4375%, 0%)" offset="0.261719"/><stop stop-opacity="1" stop-color="rgb(99.786377%, 73.233032%, 0%)" offset="0.265625"/><stop stop-opacity="1" stop-color="rgb(99.783325%, 73.028564%, 0%)" offset="0.269531"/><stop stop-opacity="1" stop-color="rgb(99.780273%, 72.825623%, 0%)" offset="0.273438"/><stop stop-opacity="1" stop-color="rgb(99.777222%, 72.621155%, 0%)" offset="0.277344"/><stop stop-opacity="1" stop-color="rgb(99.77417%, 72.418213%, 0%)" offset="0.28125"/><stop stop-opacity="1" stop-color="rgb(99.771118%, 72.213745%, 0%)" offset="0.285156"/><stop stop-opacity="1" stop-color="rgb(99.768066%, 72.010803%, 0%)" offset="0.289062"/><stop stop-opacity="1" stop-color="rgb(99.765015%, 71.806335%, 0%)" offset="0.292969"/><stop stop-opacity="1" stop-color="rgb(99.761963%, 71.601868%, 0%)" offset="0.296875"/><stop stop-opacity="1" stop-color="rgb(99.758911%, 71.3974%, 0%)" offset="0.300781"/><stop stop-opacity="1" stop-color="rgb(99.755859%, 71.194458%, 0%)" offset="0.304688"/><stop stop-opacity="1" stop-color="rgb(99.752808%, 70.98999%, 0%)" offset="0.308594"/><stop stop-opacity="1" stop-color="rgb(99.749756%, 70.787048%, 0%)" offset="0.3125"/><stop stop-opacity="1" stop-color="rgb(99.746704%, 70.582581%, 0%)" offset="0.316406"/><stop stop-opacity="1" stop-color="rgb(99.743652%, 70.379639%, 0%)" offset="0.320313"/><stop stop-opacity="1" stop-color="rgb(99.739075%, 70.175171%, 0%)" offset="0.324219"/><stop stop-opacity="1" stop-color="rgb(99.736023%, 69.970703%, 0%)" offset="0.328125"/><stop stop-opacity="1" stop-color="rgb(99.732971%, 69.766235%, 0%)" offset="0.332031"/><stop stop-opacity="1" stop-color="rgb(99.729919%, 69.563293%, 0%)" offset="0.335938"/><stop stop-opacity="1" stop-color="rgb(99.726868%, 69.358826%, 0%)" offset="0.339844"/><stop stop-opacity="1" stop-color="rgb(99.723816%, 69.155884%, 0%)" offset="0.34375"/><stop stop-opacity="1" stop-color="rgb(99.720764%, 68.951416%, 0%)" offset="0.347656"/><stop stop-opacity="1" stop-color="rgb(99.717712%, 68.746948%, 0%)" offset="0.351562"/><stop stop-opacity="1" stop-color="rgb(99.714661%, 68.54248%, 0%)" offset="0.355469"/><stop stop-opacity="1" stop-color="rgb(99.711609%, 68.339539%, 0%)" offset="0.359375"/><stop stop-opacity="1" stop-color="rgb(99.708557%, 68.135071%, 0%)" offset="0.363281"/><stop stop-opacity="1" stop-color="rgb(99.705505%, 67.932129%, 0%)" offset="0.367188"/><stop stop-opacity="1" stop-color="rgb(99.702454%, 67.727661%, 0%)" offset="0.371094"/><stop stop-opacity="1" stop-color="rgb(99.699402%, 67.524719%, 0%)" offset="0.375"/><stop stop-opacity="1" stop-color="rgb(99.69635%, 67.320251%, 0%)" offset="0.378906"/><stop stop-opacity="1" stop-color="rgb(99.693298%, 67.115784%, 0%)" offset="0.382812"/><stop stop-opacity="1" stop-color="rgb(99.690247%, 66.911316%, 0%)" offset="0.386719"/><stop stop-opacity="1" stop-color="rgb(99.687195%, 66.708374%, 0%)" offset="0.390625"/><stop stop-opacity="1" stop-color="rgb(99.684143%, 66.503906%, 0%)" offset="0.394531"/><stop stop-opacity="1" stop-color="rgb(99.681091%, 66.300964%, 0%)" offset="0.398438"/><stop stop-opacity="1" stop-color="rgb(99.67804%, 66.096497%, 0%)" offset="0.402344"/><stop stop-opacity="1" stop-color="rgb(99.674988%, 65.893555%, 0%)" offset="0.40625"/><stop stop-opacity="1" stop-color="rgb(99.67041%, 65.689087%, 0%)" offset="0.410156"/><stop stop-opacity="1" stop-color="rgb(99.667358%, 65.484619%, 0%)" offset="0.414063"/><stop stop-opacity="1" stop-color="rgb(99.664307%, 65.280151%, 0%)" offset="0.417969"/><stop stop-opacity="1" stop-color="rgb(99.661255%, 65.077209%, 0%)" offset="0.421875"/><stop stop-opacity="1" stop-color="rgb(99.658203%, 64.872742%, 0%)" offset="0.425781"/><stop stop-opacity="1" stop-color="rgb(99.655151%, 64.6698%, 0%)" offset="0.429688"/><stop stop-opacity="1" stop-color="rgb(99.6521%, 64.465332%, 0%)" offset="0.433594"/><stop stop-opacity="1" stop-color="rgb(99.649048%, 64.26239%, 0%)" offset="0.4375"/><stop stop-opacity="1" stop-color="rgb(99.645996%, 64.057922%, 0%)" offset="0.441406"/><stop stop-opacity="1" stop-color="rgb(99.642944%, 63.853455%, 0%)" offset="0.445313"/><stop stop-opacity="1" stop-color="rgb(99.639893%, 63.648987%, 0%)" offset="0.449219"/><stop stop-opacity="1" stop-color="rgb(99.636841%, 63.446045%, 0%)" offset="0.453125"/><stop stop-opacity="1" stop-color="rgb(99.633789%, 63.241577%, 0%)" offset="0.457031"/><stop stop-opacity="1" stop-color="rgb(99.630737%, 63.038635%, 0%)" offset="0.460938"/><stop stop-opacity="1" stop-color="rgb(99.627686%, 62.834167%, 0%)" offset="0.464844"/><stop stop-opacity="1" stop-color="rgb(99.624634%, 62.631226%, 0%)" offset="0.46875"/><stop stop-opacity="1" stop-color="rgb(99.621582%, 62.426758%, 0%)" offset="0.472656"/><stop stop-opacity="1" stop-color="rgb(99.61853%, 62.22229%, 0%)" offset="0.476562"/><stop stop-opacity="1" stop-color="rgb(99.615479%, 62.017822%, 0%)" offset="0.480469"/><stop stop-opacity="1" stop-color="rgb(99.612427%, 61.81488%, 0%)" offset="0.484375"/><stop stop-opacity="1" stop-color="rgb(99.607849%, 61.610413%, 0%)" offset="0.488281"/><stop stop-opacity="1" stop-color="rgb(99.604797%, 61.407471%, 0%)" offset="0.492188"/><stop stop-opacity="1" stop-color="rgb(99.601746%, 61.203003%, 0%)" offset="0.496094"/><stop stop-opacity="1" stop-color="rgb(99.598694%, 60.998535%, 0%)" offset="0.5"/><stop stop-opacity="1" stop-color="rgb(99.595642%, 60.794067%, 0%)" offset="0.503906"/><stop stop-opacity="1" stop-color="rgb(99.59259%, 60.591125%, 0%)" offset="0.507812"/><stop stop-opacity="1" stop-color="rgb(99.589539%, 60.386658%, 0%)" offset="0.511719"/><stop stop-opacity="1" stop-color="rgb(99.586487%, 60.183716%, 0%)" offset="0.515625"/><stop stop-opacity="1" stop-color="rgb(99.583435%, 59.979248%, 0%)" offset="0.519531"/><stop stop-opacity="1" stop-color="rgb(99.580383%, 59.776306%, 0%)" offset="0.523437"/><stop stop-opacity="1" stop-color="rgb(99.577332%, 59.571838%, 0%)" offset="0.527344"/><stop stop-opacity="1" stop-color="rgb(99.57428%, 59.367371%, 0%)" offset="0.53125"/><stop stop-opacity="1" stop-color="rgb(99.571228%, 59.162903%, 0%)" offset="0.535156"/><stop stop-opacity="1" stop-color="rgb(99.568176%, 58.959961%, 0%)" offset="0.539063"/><stop stop-opacity="1" stop-color="rgb(99.565125%, 58.755493%, 0%)" offset="0.542969"/><stop stop-opacity="1" stop-color="rgb(99.562073%, 58.552551%, 0%)" offset="0.546875"/><stop stop-opacity="1" stop-color="rgb(99.559021%, 58.348083%, 0%)" offset="0.550781"/><stop stop-opacity="1" stop-color="rgb(99.555969%, 58.145142%, 0%)" offset="0.554688"/><stop stop-opacity="1" stop-color="rgb(99.552917%, 57.940674%, 0%)" offset="0.558594"/><stop stop-opacity="1" stop-color="rgb(99.549866%, 57.736206%, 0%)" offset="0.5625"/><stop stop-opacity="1" stop-color="rgb(99.545288%, 57.531738%, 0%)" offset="0.566406"/><stop stop-opacity="1" stop-color="rgb(99.542236%, 57.328796%, 0%)" offset="0.570312"/><stop stop-opacity="1" stop-color="rgb(99.539185%, 57.124329%, 0%)" offset="0.574219"/><stop stop-opacity="1" stop-color="rgb(99.536133%, 56.921387%, 0%)" offset="0.578125"/><stop stop-opacity="1" stop-color="rgb(99.533081%, 56.716919%, 0%)" offset="0.582031"/><stop stop-opacity="1" stop-color="rgb(99.530029%, 56.513977%, 0%)" offset="0.585938"/><stop stop-opacity="1" stop-color="rgb(99.526978%, 56.309509%, 0%)" offset="0.589844"/><stop stop-opacity="1" stop-color="rgb(99.523926%, 56.105042%, 0%)" offset="0.59375"/><stop stop-opacity="1" stop-color="rgb(99.520874%, 55.900574%, 0%)" offset="0.597656"/><stop stop-opacity="1" stop-color="rgb(99.517822%, 55.697632%, 0%)" offset="0.601562"/><stop stop-opacity="1" stop-color="rgb(99.514771%, 55.493164%, 0%)" offset="0.605469"/><stop stop-opacity="1" stop-color="rgb(99.511719%, 55.290222%, 0%)" offset="0.609375"/><stop stop-opacity="1" stop-color="rgb(99.508667%, 55.085754%, 0%)" offset="0.613281"/><stop stop-opacity="1" stop-color="rgb(99.505615%, 54.882812%, 0%)" offset="0.617187"/><stop stop-opacity="1" stop-color="rgb(99.502563%, 54.678345%, 0%)" offset="0.621094"/><stop stop-opacity="1" stop-color="rgb(99.499512%, 54.473877%, 0%)" offset="0.625"/><stop stop-opacity="1" stop-color="rgb(99.49646%, 54.269409%, 0%)" offset="0.628906"/><stop stop-opacity="1" stop-color="rgb(99.493408%, 54.066467%, 0%)" offset="0.632813"/><stop stop-opacity="1" stop-color="rgb(99.490356%, 53.862%, 0%)" offset="0.636719"/><stop stop-opacity="1" stop-color="rgb(99.487305%, 53.659058%, 0%)" offset="0.640625"/><stop stop-opacity="1" stop-color="rgb(99.484253%, 53.45459%, 0%)" offset="0.644531"/><stop stop-opacity="1" stop-color="rgb(99.481201%, 53.250122%, 0%)" offset="0.648438"/><stop stop-opacity="1" stop-color="rgb(99.476624%, 53.045654%, 0%)" offset="0.652344"/><stop stop-opacity="1" stop-color="rgb(99.473572%, 52.842712%, 0%)" offset="0.65625"/><stop stop-opacity="1" stop-color="rgb(99.47052%, 52.638245%, 0%)" offset="0.660156"/><stop stop-opacity="1" stop-color="rgb(99.467468%, 52.435303%, 0%)" offset="0.664062"/><stop stop-opacity="1" stop-color="rgb(99.464417%, 52.230835%, 0%)" offset="0.667969"/><stop stop-opacity="1" stop-color="rgb(99.461365%, 52.027893%, 0%)" offset="0.671875"/><stop stop-opacity="1" stop-color="rgb(99.458313%, 51.823425%, 0%)" offset="0.675781"/><stop stop-opacity="1" stop-color="rgb(99.455261%, 51.618958%, 0%)" offset="0.679688"/><stop stop-opacity="1" stop-color="rgb(99.452209%, 51.41449%, 0%)" offset="0.683594"/><stop stop-opacity="1" stop-color="rgb(99.449158%, 51.211548%, 0%)" offset="0.6875"/><stop stop-opacity="1" stop-color="rgb(99.446106%, 51.00708%, 0%)" offset="0.691406"/><stop stop-opacity="1" stop-color="rgb(99.443054%, 50.804138%, 0%)" offset="0.695312"/><stop stop-opacity="1" stop-color="rgb(99.440002%, 50.59967%, 0%)" offset="0.699219"/><stop stop-opacity="1" stop-color="rgb(99.436951%, 50.396729%, 0%)" offset="0.703125"/><stop stop-opacity="1" stop-color="rgb(99.433899%, 50.192261%, 0%)" offset="0.707031"/><stop stop-opacity="1" stop-color="rgb(99.430847%, 49.987793%, 0%)" offset="0.710937"/><stop stop-opacity="1" stop-color="rgb(99.427795%, 49.783325%, 0%)" offset="0.714844"/><stop stop-opacity="1" stop-color="rgb(99.424744%, 49.580383%, 0%)" offset="0.71875"/><stop stop-opacity="1" stop-color="rgb(99.421692%, 49.375916%, 0%)" offset="0.722656"/><stop stop-opacity="1" stop-color="rgb(99.41864%, 49.172974%, 0%)" offset="0.726563"/><stop stop-opacity="1" stop-color="rgb(99.414062%, 48.968506%, 0%)" offset="0.730469"/><stop stop-opacity="1" stop-color="rgb(99.411011%, 48.765564%, 0%)" offset="0.734375"/><stop stop-opacity="1" stop-color="rgb(99.407959%, 48.561096%, 0%)" offset="0.738281"/><stop stop-opacity="1" stop-color="rgb(99.404907%, 48.356628%, 0%)" offset="0.742188"/><stop stop-opacity="1" stop-color="rgb(99.401855%, 48.152161%, 0%)" offset="0.746094"/><stop stop-opacity="1" stop-color="rgb(99.398804%, 47.949219%, 0%)" offset="0.75"/><stop stop-opacity="1" stop-color="rgb(99.395752%, 47.744751%, 0%)" offset="0.753906"/><stop stop-opacity="1" stop-color="rgb(99.3927%, 47.541809%, 0%)" offset="0.757812"/><stop stop-opacity="1" stop-color="rgb(99.389648%, 47.337341%, 0%)" offset="0.761719"/><stop stop-opacity="1" stop-color="rgb(99.386597%, 47.132874%, 0%)" offset="0.765625"/><stop stop-opacity="1" stop-color="rgb(99.383545%, 46.928406%, 0%)" offset="0.769531"/><stop stop-opacity="1" stop-color="rgb(99.380493%, 46.725464%, 0%)" offset="0.773438"/><stop stop-opacity="1" stop-color="rgb(99.377441%, 46.520996%, 0%)" offset="0.777344"/><stop stop-opacity="1" stop-color="rgb(99.37439%, 46.318054%, 0%)" offset="0.78125"/><stop stop-opacity="1" stop-color="rgb(99.371338%, 46.113586%, 0%)" offset="0.785156"/><stop stop-opacity="1" stop-color="rgb(99.368286%, 45.910645%, 0%)" offset="0.789062"/><stop stop-opacity="1" stop-color="rgb(99.365234%, 45.706177%, 0%)" offset="0.792969"/><stop stop-opacity="1" stop-color="rgb(99.362183%, 45.501709%, 0%)" offset="0.796875"/><stop stop-opacity="1" stop-color="rgb(99.359131%, 45.297241%, 0%)" offset="0.800781"/><stop stop-opacity="1" stop-color="rgb(99.356079%, 45.094299%, 0%)" offset="0.804687"/><stop stop-opacity="1" stop-color="rgb(99.353027%, 44.889832%, 0%)" offset="0.808594"/><stop stop-opacity="1" stop-color="rgb(99.349976%, 44.68689%, 0%)" offset="0.8125"/><stop stop-opacity="1" stop-color="rgb(99.345398%, 44.482422%, 0%)" offset="0.816406"/><stop stop-opacity="1" stop-color="rgb(99.342346%, 44.27948%, 0%)" offset="0.820313"/><stop stop-opacity="1" stop-color="rgb(99.339294%, 44.075012%, 0%)" offset="0.824219"/><stop stop-opacity="1" stop-color="rgb(99.336243%, 43.870544%, 0%)" offset="0.828125"/><stop stop-opacity="1" stop-color="rgb(99.333191%, 43.666077%, 0%)" offset="0.832031"/><stop stop-opacity="1" stop-color="rgb(99.330139%, 43.463135%, 0%)" offset="0.835938"/><stop stop-opacity="1" stop-color="rgb(99.327087%, 43.258667%, 0%)" offset="0.839844"/><stop stop-opacity="1" stop-color="rgb(99.324036%, 43.055725%, 0%)" offset="0.84375"/><stop stop-opacity="1" stop-color="rgb(99.320984%, 42.851257%, 0%)" offset="0.847656"/><stop stop-opacity="1" stop-color="rgb(99.317932%, 42.648315%, 0%)" offset="0.851562"/><stop stop-opacity="1" stop-color="rgb(99.31488%, 42.443848%, 0%)" offset="0.855469"/><stop stop-opacity="1" stop-color="rgb(99.311829%, 42.23938%, 0%)" offset="0.859375"/><stop stop-opacity="1" stop-color="rgb(99.308777%, 42.034912%, 0%)" offset="0.863281"/><stop stop-opacity="1" stop-color="rgb(99.305725%, 41.83197%, 0%)" offset="0.867188"/><stop stop-opacity="1" stop-color="rgb(99.302673%, 41.627502%, 0%)" offset="0.871094"/><stop stop-opacity="1" stop-color="rgb(99.299622%, 41.424561%, 0%)" offset="0.875"/><stop stop-opacity="1" stop-color="rgb(99.29657%, 41.220093%, 0%)" offset="0.878906"/><stop stop-opacity="1" stop-color="rgb(99.293518%, 41.017151%, 0%)" offset="0.882812"/><stop stop-opacity="1" stop-color="rgb(99.290466%, 40.812683%, 0%)" offset="0.886719"/><stop stop-opacity="1" stop-color="rgb(99.287415%, 40.608215%, 0%)" offset="0.890625"/><stop stop-opacity="1" stop-color="rgb(99.282837%, 40.403748%, 0%)" offset="0.894531"/><stop stop-opacity="1" stop-color="rgb(99.279785%, 40.200806%, 0%)" offset="0.898437"/><stop stop-opacity="1" stop-color="rgb(99.276733%, 39.996338%, 0%)" offset="0.902344"/><stop stop-opacity="1" stop-color="rgb(99.273682%, 39.793396%, 0%)" offset="0.90625"/><stop stop-opacity="1" stop-color="rgb(99.27063%, 39.588928%, 0%)" offset="0.910156"/><stop stop-opacity="1" stop-color="rgb(99.267578%, 39.38446%, 0%)" offset="0.914063"/><stop stop-opacity="1" stop-color="rgb(99.264526%, 39.179993%, 0%)" offset="0.917969"/><stop stop-opacity="1" stop-color="rgb(99.261475%, 38.977051%, 0%)" offset="0.921875"/><stop stop-opacity="1" stop-color="rgb(99.258423%, 38.772583%, 0%)" offset="0.925781"/><stop stop-opacity="1" stop-color="rgb(99.255371%, 38.569641%, 0%)" offset="0.929688"/><stop stop-opacity="1" stop-color="rgb(99.252319%, 38.365173%, 0%)" offset="0.933594"/><stop stop-opacity="1" stop-color="rgb(99.249268%, 38.162231%, 0%)" offset="0.9375"/><stop stop-opacity="1" stop-color="rgb(99.246216%, 37.957764%, 0%)" offset="0.941406"/><stop stop-opacity="1" stop-color="rgb(99.243164%, 37.753296%, 0%)" offset="0.945312"/><stop stop-opacity="1" stop-color="rgb(99.240112%, 37.548828%, 0%)" offset="0.949219"/><stop stop-opacity="1" stop-color="rgb(99.237061%, 37.345886%, 0%)" offset="0.953125"/><stop stop-opacity="1" stop-color="rgb(99.234009%, 37.141418%, 0%)" offset="0.957031"/><stop stop-opacity="1" stop-color="rgb(99.230957%, 36.938477%, 0%)" offset="0.960938"/><stop stop-opacity="1" stop-color="rgb(99.227905%, 36.734009%, 0%)" offset="0.964844"/><stop stop-opacity="1" stop-color="rgb(99.224854%, 36.531067%, 0%)" offset="0.96875"/><stop stop-opacity="1" stop-color="rgb(99.221802%, 36.326599%, 0%)" offset="0.972656"/><stop stop-opacity="1" stop-color="rgb(99.21875%, 36.122131%, 0%)" offset="0.976562"/><stop stop-opacity="1" stop-color="rgb(99.214172%, 35.917664%, 0%)" offset="0.980469"/><stop stop-opacity="1" stop-color="rgb(99.211121%, 35.714722%, 0%)" offset="0.984375"/><stop stop-opacity="1" stop-color="rgb(99.208069%, 35.510254%, 0%)" offset="0.988281"/><stop stop-opacity="1" stop-color="rgb(99.205017%, 35.307312%, 0%)" offset="0.992187"/><stop stop-opacity="1" stop-color="rgb(99.201965%, 35.102844%, 0%)" offset="0.996094"/><stop stop-opacity="1" stop-color="rgb(99.198914%, 34.899902%, 0%)" offset="1"/></linearGradient></defs><g clip-path="url(#fef1863124)"><g clip-path="url(#92309ba379)"><path fill="url(#b1fd5fe3ca)" d="M 1.023438 0 L 1.023438 47.019531 L 47.308594 47.019531 L 47.308594 0 Z M 1.023438 0 " fill-rule="nonzero"/></g></g></svg>