<svg xmlns="http://www.w3.org/2000/svg" xmlns:xlink="http://www.w3.org/1999/xlink" width="64" zoomAndPan="magnify" viewBox="0 0 48 48" height="64" preserveAspectRatio="xMidYMid meet" version="1.0"><defs><clipPath id="64aeac557a"><path d="M 0.488281 0 L 47.507812 0 L 47.507812 47.019531 L 0.488281 47.019531 Z M 0.488281 0 " clip-rule="nonzero"/></clipPath></defs><g clip-path="url(#64aeac557a)"><path fill="#1d9bf0" d="M 41.632812 47.019531 L 6.367188 47.019531 C 3.121094 47.019531 0.488281 44.386719 0.488281 41.144531 L 0.488281 5.878906 C 0.488281 2.632812 3.121094 0 6.367188 0 L 41.632812 0 C 44.878906 0 47.511719 2.632812 47.511719 5.878906 L 47.511719 41.144531 C 47.511719 44.386719 44.878906 47.019531 41.632812 47.019531 Z M 41.632812 47.019531 " fill-opacity="1" fill-rule="nonzero"/></g><path fill="#ffffff" d="M 18.546875 35.453125 C 29.628906 35.453125 35.695312 26.261719 35.695312 18.300781 C 35.695312 18.042969 35.695312 17.785156 35.683594 17.527344 C 36.859375 16.679688 37.882812 15.609375 38.695312 14.398438 C 37.613281 14.882812 36.449219 15.199219 35.226562 15.351562 C 36.472656 14.613281 37.425781 13.425781 37.882812 12.015625 C 36.71875 12.707031 35.425781 13.199219 34.050781 13.472656 C 32.945312 12.296875 31.382812 11.566406 29.652344 11.566406 C 26.328125 11.566406 23.625 14.269531 23.625 17.597656 C 23.625 18.066406 23.683594 18.527344 23.777344 18.972656 C 18.769531 18.726562 14.324219 16.316406 11.351562 12.671875 C 10.835938 13.566406 10.539062 14.601562 10.539062 15.703125 C 10.539062 17.796875 11.609375 19.644531 13.21875 20.722656 C 12.234375 20.6875 11.304688 20.417969 10.492188 19.972656 C 10.492188 19.996094 10.492188 20.019531 10.492188 20.054688 C 10.492188 22.96875 12.574219 25.414062 15.324219 25.96875 C 14.820312 26.109375 14.289062 26.179688 13.738281 26.179688 C 13.351562 26.179688 12.972656 26.144531 12.609375 26.074219 C 13.375 28.472656 15.605469 30.210938 18.238281 30.257812 C 16.171875 31.878906 13.574219 32.84375 10.753906 32.84375 C 10.269531 32.84375 9.789062 32.820312 9.316406 32.761719 C 11.972656 34.453125 15.148438 35.453125 18.546875 35.453125 " fill-opacity="1" fill-rule="nonzero"/></svg>